<svg
  xmlns="http://www.w3.org/2000/svg"
  xmlns:dc="http://purl.org/dc/elements/1.1/"
  xmlns:cc="http://creativecommons.org/ns#"
  xmlns:rdf="http://www.w3.org/1999/02/22-rdf-syntax-ns#"
  xmlns:svg="http://www.w3.org/2000/svg"
  xmlns:xlink="http://www.w3.org/1999/xlink"
>
  <symbol id="doubleAngle" viewBox="0 0 17.355 13.002">
    <path d="m0.14689 0.14689a0.5 0.5 0 0 1 0.708 0l6 6a0.5 0.5 0 0 1 0 0.708l-6 6a0.50063 0.50063 0 0 1-0.708-0.708l5.647-5.646-5.647-5.646a0.5 0.5 0 0 1 0-0.708z" fill-rule="evenodd"/>
    <path d="m10.5 0.14689a0.5 0.5 0 0 1 0.708 0l6 6a0.5 0.5 0 0 1 0 0.708l-6 6a0.50063 0.50063 0 0 1-0.708-0.708l5.647-5.646-5.647-5.646a0.5 0.5 0 0 1 0-0.708z" fill-rule="evenodd"/>
  </symbol>

  <symbol id="filter" viewBox="0 0 16 16">
    <path d="M6 10.5a.5.5 0 0 1 .5-.5h3a.5.5 0 0 1 0 1h-3a.5.5 0 0 1-.5-.5zm-2-3a.5.5 0 0 1 .5-.5h7a.5.5 0 0 1 0 1h-7a.5.5 0 0 1-.5-.5zm-2-3a.5.5 0 0 1 .5-.5h11a.5.5 0 0 1 0 1h-11a.5.5 0 0 1-.5-.5z" fill-rule="evenodd"/>
  </symbol>

  <symbol id="house" viewBox="0 0 16 16">
    <path d="M8.354 1.146a.5.5 0 0 0-.708 0l-6 6A.5.5 0 0 0 1.5 7.5v7a.5.5 0 0 0 .5.5h4.5a.5.5 0 0 0 .5-.5v-4h2v4a.5.5 0 0 0 .5.5H14a.5.5 0 0 0 .5-.5v-7a.5.5 0 0 0-.146-.354L13 5.793V2.5a.5.5 0 0 0-.5-.5h-1a.5.5 0 0 0-.5.5v1.293L8.354 1.146zM2.5 14V7.707l5.5-5.5 5.5 5.5V14H10v-4a.5.5 0 0 0-.5-.5h-3a.5.5 0 0 0-.5.5v4H2.5z"/>
  </symbol>

  <symbol id="heart" viewBox="0 0 512 512">
    <path d="M458.4 64.3C400.6 15.7 311.3 23 256 79.3 200.7 23 111.4 15.6 53.6 64.3-21.6 127.6-10.6 230.8 43 285.5l175.4 178.7c10 10.2 23.4 15.9 37.6 15.9 14.3 0 27.6-5.6 37.6-15.8L469 285.6c53.5-54.7 64.7-157.9-10.6-221.3zm-23.6 187.5L259.4 430.5c-2.4 2.4-4.4 2.4-6.8 0L77.2 251.8c-36.5-37.2-43.9-107.6 7.3-150.7 38.9-32.7 98.9-27.8 136.5 10.5l35 35.7 35-35.7c37.8-38.5 97.8-43.2 136.5-10.6 51.1 43.1 43.5 113.9 7.3 150.8z"/>
  </symbol>

  <symbol id="search" viewBox="0 0 16 16">
    <path d="M11.742 10.344a6.5 6.5 0 1 0-1.397 1.398h-.001c.03.04.062.078.098.115l3.85 3.85a1 1 0 0 0 1.415-1.414l-3.85-3.85a1.007 1.007 0 0 0-.115-.1zM12 6.5a5.5 5.5 0 1 1-11 0 5.5 5.5 0 0 1 11 0z"/>
  </symbol>

  <symbol id="star" viewBox="0 0 576 512">
    <path d="M528.1 171.5L382 150.2 316.7 17.8c-11.7-23.6-45.6-23.9-57.4 0L194 150.2 47.9 171.5c-26.2 3.8-36.7 36.1-17.7 54.6l105.7 103-25 145.5c-4.5 26.3 23.2 46 46.4 33.7L288 439.6l130.7 68.7c23.2 12.2 50.9-7.4 46.4-33.7l-25-145.5 105.7-103c19-18.5 8.5-50.8-17.7-54.6zM388.6 312.3l23.7 138.4L288 385.4l-124.3 65.3 23.7-138.4-100.6-98 139-20.2 62.2-126 62.2 126 139 20.2-100.6 98z"/>
  </symbol>

  <symbol id="cart" viewBox="0 0 448 512">
    <path d="M352 128C352 57.42 294.579 0 224 0 153.42 0 96 57.42 96 128H0v304c0 44.183 35.817 80 80 80h288c44.183 0 80-35.817 80-80V128h-96zM224 48c44.112 0 80 35.888 80 80H144c0-44.112 35.888-80 80-80zm176 384c0 17.645-14.355 32-32 32H80c-17.645 0-32-14.355-32-32V176h48v40c0 13.255 10.745 24 24 24s24-10.745 24-24v-40h160v40c0 13.255 10.745 24 24 24s24-10.745 24-24v-40h48v256z"/>
  </symbol>

  <symbol id="angleLeft" viewBox="0 0 16 16">
    <path fill-rule="evenodd" d="M11.354 1.646a.5.5 0 0 1 0 .708L5.707 8l5.647 5.646a.5.5 0 0 1-.708.708l-6-6a.5.5 0 0 1 0-.708l6-6a.5.5 0 0 1 .708 0z"/>
  </symbol>

  <symbol id="angleRight" viewBox="0 0 16 16">
    <path fill-rule="evenodd" d="M4.646 1.646a.5.5 0 0 1 .708 0l6 6a.5.5 0 0 1 0 .708l-6 6a.5.5 0 0 1-.708-.708L10.293 8 4.646 2.354a.5.5 0 0 1 0-.708z"/>
  </symbol>

</svg>
